<?xml version="1.0" encoding="utf-8"?>
<!-- Generator: Adobe Illustrator 19.2.0, SVG Export Plug-In . SVG Version: 6.00 Build 0)  -->
<svg version="1.1" id="Слой_1" xmlns="http://www.w3.org/2000/svg" xmlns:xlink="http://www.w3.org/1999/xlink" x="0px" y="0px"
	 viewBox="0 0 517.1 109.7" style="enable-background:new 0 0 517.1 109.7;" xml:space="preserve">
<style type="text/css">
	.st0{fill:#F7931E;}
	.st1{fill:#666666;}
	.st2{fill:#333333;}
</style>
<rect x="327.2" class="st0" width="189.9" height="81.7"/>
<rect class="st1" width="327.2" height="81.7"/>
<g>
	<path class="st0" d="M25.6,73.6H10.3v-63h40.8v14.7H25.6v11.2h24v14.3h-24V73.6z"/>
	<path class="st0" d="M81.2,52.3v21.3H65.9v-63h24.5c25,0,28.7,30.9,9.4,40.1l13.5,20v2.9H96.8L83.7,52.3H81.2z M81.2,38.4H90
		c9.3,0,9.4-13,0-13h-8.8V38.4z"/>
	<path class="st0" d="M160,9.7c18,0,32.7,14,32.7,32.6c0,18.3-14.7,32.3-32.7,32.3s-32.6-13.8-32.6-32.3S142,9.7,160,9.7z
		 M177.2,42.2c0-23.8-34.5-23.8-34.5,0C142.7,66,177.2,65.8,177.2,42.2z"/>
	<path class="st0" d="M207.3,73.6v-63h11.9l21.8,31.5V10.6h15.2v63h-12.1L222.6,43v30.7H207.3z"/>
	<path class="st0" d="M288.2,73.6V25h-17V10.6h49.3V25h-16.9v48.6H288.2z"/>
	<path class="st2" d="M350.8,58.8h26.5v14.8h-41.6v-63h41.5v14.8h-26.4v9.2h25.8v14.9h-25.8V58.8z"/>
	<path class="st2" d="M392.2,73.6v-63h11.9l21.8,31.5V10.6h15.2v63H429L407.5,43v30.7H392.2z"/>
	<path class="st2" d="M479.7,10.6c20.8,0,31.2,15.8,31.2,31.6s-10.4,31.4-31.2,31.4h-23.3v-63H479.7z M479.7,59.2
		c10.6,0,15.7-8.7,15.7-17s-5-17.4-15.7-17.4h-8.1v34.4H479.7z"/>
</g>
<g>
	<path d="M469.7,95.2c0.8-2.1,2.4-3.3,4.7-3.3c3.3,0,5.4,2.5,5.4,6.5s-2.1,6.6-5.4,6.6c-2.4,0-4-1.2-4.7-3.3v3h-0.9V87.5h1V95.2z
		 M469.7,98.4c0,3.5,1.8,5.8,4.6,5.8c2.8,0,4.5-2.2,4.5-5.7c0-3.6-1.8-5.7-4.6-5.7C471.5,92.7,469.7,95,469.7,98.4z"/>
	<path d="M484.4,104.6h-1V87.5h1V104.6z"/>
	<path d="M499.3,98.5c0,3.9-2.2,6.4-5.7,6.4c-3.5,0-5.7-2.5-5.7-6.5c0-3.9,2.3-6.5,5.7-6.5C497,91.9,499.3,94.5,499.3,98.5z
		 M488.8,98.4c0,3.5,1.8,5.7,4.8,5.7c2.8,0,4.7-2.2,4.7-5.6c0-3.5-1.8-5.7-4.7-5.7S488.8,95,488.8,98.4z"/>
	<path d="M512.7,103.6c0,1.7-0.2,2.6-0.7,3.5c-0.8,1.4-2.4,2.2-4.6,2.2c-3,0-4.7-1.3-4.8-3.8h1c0.1,2,1.7,3,3.9,3
		c1.6,0,2.9-0.5,3.6-1.4c0.5-0.7,0.8-1.8,0.8-3.4V101c-0.7,2-2.3,3.1-4.6,3.1c-3.2,0-5.2-2.4-5.2-6c0-3.8,2.1-6.2,5.4-6.2
		c2.2,0,3.7,1.2,4.5,3.1v-2.8h0.9V103.6z M503,98.1c0,3.2,1.7,5.2,4.3,5.2c3,0,4.5-2.5,4.5-5.3c0-3.1-1.8-5.2-4.4-5.2
		C504.7,92.8,503,94.9,503,98.1z"/>
</g>
</svg>
