<?xml version="1.0" encoding="utf-8"?>
<!-- Generator: Adobe Illustrator 19.2.0, SVG Export Plug-In . SVG Version: 6.00 Build 0)  -->
<svg version="1.1" id="Слой_1" xmlns="http://www.w3.org/2000/svg" xmlns:xlink="http://www.w3.org/1999/xlink" x="0px" y="0px"
	 viewBox="0 0 300.8 96.8" style="enable-background:new 0 0 300.8 96.8;" xml:space="preserve">
<style type="text/css">
	.st0{fill:#FFFFFF;stroke:#000000;stroke-miterlimit:10;}
</style>
<rect x="0.5" y="4.5" class="st0" width="88" height="88"/>
<g>
	<path d="M251.2,82.7c0.8-2.1,2.4-3.3,4.7-3.3c3.3,0,5.4,2.5,5.4,6.5s-2.1,6.6-5.4,6.6c-2.4,0-4-1.2-4.7-3.3v3h-0.9V75h1v7.7H251.2z
		 M251.2,85.9c0,3.5,1.8,5.8,4.6,5.8c2.8,0,4.5-2.2,4.5-5.7c0-3.6-1.8-5.7-4.6-5.7C253,80.2,251.2,82.5,251.2,85.9z"/>
	<path d="M265.9,92.1h-1V75h1V92.1z"/>
	<path d="M280.8,86c0,3.9-2.2,6.4-5.7,6.4s-5.7-2.5-5.7-6.5c0-3.9,2.3-6.5,5.7-6.5S280.8,82,280.8,86z M270.3,85.9
		c0,3.5,1.8,5.7,4.8,5.7c2.8,0,4.7-2.2,4.7-5.6c0-3.5-1.8-5.7-4.7-5.7S270.3,82.5,270.3,85.9z"/>
	<path d="M294.2,91.1c0,1.7-0.2,2.6-0.7,3.5c-0.8,1.4-2.4,2.2-4.6,2.2c-3,0-4.7-1.3-4.8-3.8h1c0.1,2,1.7,3,3.9,3
		c1.6,0,2.9-0.5,3.6-1.4c0.5-0.7,0.8-1.8,0.8-3.4v-2.7c-0.7,2-2.3,3.1-4.6,3.1c-3.2,0-5.2-2.4-5.2-6c0-3.8,2.1-6.2,5.4-6.2
		c2.2,0,3.7,1.2,4.5,3.1v-2.8h0.9v11.4H294.2z M284.5,85.6c0,3.2,1.7,5.2,4.3,5.2c3,0,4.5-2.5,4.5-5.3c0-3.1-1.8-5.2-4.4-5.2
		C286.2,80.3,284.5,82.4,284.5,85.6z"/>
</g>
<g>
	<path d="M42.8,22H13.6v20.6h26.2v2.7H13.6v25.3h-3.1V19.2h32.3V22z"/>
	<path d="M67.3,36.3h-1.1c-4.2,0-7.7,1.7-10.2,5c-3,4-3.1,8.6-3.1,13.3v15.9h-2.9V33.6h2.8v9.7c2.7-7.2,7-10,14.4-10V36.3z"/>
	<path d="M106.2,52.3c0,11.8-6.7,19.3-17.1,19.3C78.7,71.6,72,63.9,72,52.1c0-11.7,6.8-19.5,17.2-19.5
		C99.5,32.6,106.2,40.3,106.2,52.3z M74.9,52.1c0,10.4,5.5,17,14.3,17c8.5,0,14-6.6,14-16.8c0-10.4-5.5-17.2-14-17.2
		C80.6,35.1,74.9,41.9,74.9,52.1z"/>
	<path d="M118.9,41.8c2.6-5.9,6.8-9.1,13.6-9.1c8.3,0,13,5.3,13,13.7v24.2h-2.9V47.7c0-7.1-2.3-12.5-10.7-12.5
		c-4.8,0-8.6,2.2-10.8,6c-1.4,2.5-2.1,5.3-2.1,10.2v19.1h-2.9V33.6h2.8V41.8z"/>
	<path d="M170.6,36.2h-7.9v25c0,3.8-0.1,6.9,4.9,6.9c0.7,0,1.7-0.1,3-0.3v2.7c-1.6,0.2-2.2,0.3-3.5,0.3c-7.8,0-7.3-4.8-7.3-10.7
		V36.2H153v-2.5h6.8V22h2.9v11.6h7.9V36.2z"/>
	<path d="M194.4,71.7c-10.2,0-16.8-7.6-16.8-19.3c0-11.7,6.8-19.8,16.8-19.8c10.9,0,16.1,8.9,16.1,19v1h-29.9
		c0,8.5,4.1,16.6,13.8,16.6c6.8,0,11.4-4.1,12.8-11.3h2.9C208.8,66,203.1,71.7,194.4,71.7z M194.4,35.2c-9.1,0-13,7-13.8,14.9h26.9
		C207.5,42.6,203.3,35.2,194.4,35.2z"/>
	<path d="M223.1,41.8c2.6-5.9,6.8-9.1,13.6-9.1c8.3,0,13,5.3,13,13.7v24.2h-2.9V47.7c0-7.1-2.3-12.5-10.7-12.5
		c-4.8,0-8.6,2.2-10.8,6c-1.4,2.5-2.1,5.3-2.1,10.2v19.1h-2.9V33.6h2.8V41.8z"/>
	<path d="M292.9,70.5h-2.7v-9c-1.9,6.5-7.2,10.2-14,10.2c-10.2,0-16.5-7.4-16.5-19.4c0-12,6.5-19.7,16.5-19.7
		c6.8,0,11.7,3.7,13.9,9.6V19.2h2.9V70.5z M262.6,52.2c0,10.5,5.2,17,13.6,17c8.5,0,13.8-6.6,13.8-17.1c0-8.6-4.1-17.1-13.9-17.1
		C267.9,35,262.6,41.7,262.6,52.2z"/>
</g>
</svg>
