<?xml version="1.0" encoding="UTF-8" standalone="no"?>
<!-- Created with Inkscape (http://www.inkscape.org/) -->
<svg xmlns:dc="http://purl.org/dc/elements/1.1/" xmlns:cc="http://creativecommons.org/ns#" xmlns:rdf="http://www.w3.org/1999/02/22-rdf-syntax-ns#" xmlns:svg="http://www.w3.org/2000/svg" xmlns="http://www.w3.org/2000/svg" xmlns:sodipodi="http://sodipodi.sourceforge.net/DTD/sodipodi-0.dtd" xmlns:inkscape="http://www.inkscape.org/namespaces/inkscape" width="304.177" height="310.83231" id="svg2" version="1.1" inkscape:version="0.48.3.1 r9886" sodipodi:docname="Documento nuevo 1">
  <defs id="defs4"/>
  <sodipodi:namedview id="base" pagecolor="#ffffff" bordercolor="#666666" borderopacity="1.0" inkscape:pageopacity="0.0" inkscape:pageshadow="2" inkscape:zoom="1" inkscape:cx="293.2553" inkscape:cy="108.59526" inkscape:document-units="px" inkscape:current-layer="layer2" showgrid="false" fit-margin-top="0" fit-margin-left="0" fit-margin-right="0" fit-margin-bottom="0" inkscape:window-width="1360" inkscape:window-height="742" inkscape:window-x="0" inkscape:window-y="0" inkscape:window-maximized="1"/>
  <g inkscape:groupmode="layer" id="layer2" inkscape:label="Capa" transform="translate(-242.39156,-323.53727)">
    <g id="g4387">
      <path style="fill:#a37a43;fill-opacity:1;stroke:#000000;stroke-width:1px;stroke-linecap:butt;stroke-linejoin:miter;stroke-opacity:1" d="m 509,581.36218 c -43.41034,28.18312 -115.3497,40.59705 -158.37614,33.02712 -63.34311,-14.6667 -79.11797,-58.6252 -73.438,-114.18912 0.66559,-6.80984 -2.60795,-12.32837 -4.41735,-17.8189 -7.15247,-21.70375 -17.07171,-42.35392 -26.97941,-62.89412 -2.42869,-5.03504 -2.97336,-10.56451 -2.85193,-16.1177 0.16534,-7.56114 -1.49857,-18.15611 6.17583,-21.93001 9.47261,-4.65818 21.30941,-2.04255 29.96121,2.92503 22.78242,13.08092 51.72512,53.30262 98.24717,33.70866 54.49498,-22.95196 55.85273,-31.93551 57.28355,-43.76693 1.32045,-10.91878 7.08934,-21.04959 14.45502,-29.44157 6.01742,-6.85586 11.83575,-14.14783 19.39477,-19.22543 7.9462,-5.33768 18.44467,3.49582 19.22909,12.7171 1.10381,12.97595 4.31026,25.70969 4.81197,38.75912 0.45931,11.94657 1.89254,23.83463 4.18331,35.58562 1.78903,9.17721 -2.23993,21.56919 6.99026,31.16068 35.2734,36.65412 38.03775,102.11605 5.33065,137.50045 z" id="path4261" inkscape:connector-curvature="0" sodipodi:nodetypes="cccsssssssssssssc"/>
      <path id="path4177" d="m 394.40625,441.125 c -5.98214,-0.0825 -12.187,4.49101 -13,12.96875 -6.36431,16.90061 1.88917,34.42303 -0.59375,51.53125 -6.7114,19.45268 -27.56071,30.85552 -32.78125,51.1875 13.03778,12.60997 -5.65221,29.04205 -19.46875,23.03125 -10.75443,-1.1444 -24.23713,-2.5529 -34.3125,2.125 11.7629,15.05471 29.92113,26.28102 56.375,32.40625 43.02644,7.56993 114.96466,-4.81688 158.375,-33 15.63406,-16.91382 23.12685,-40.71036 22.875,-64.9375 -0.34943,0.0883 -0.70641,0.17234 -1.0625,0.28125 -15.19585,11.55942 -34.45455,20.8378 -54.03125,16.9375 -16.66427,-8.58227 3.92274,-18.63501 11.4375,-24.3125 -4.14121,-11.50481 -27.78697,15.5811 -33.59375,-2.5625 -3.23299,1.73037 -17.65162,8.33487 -22.71875,-2.375 -6.04509,-18.34731 -14.64203,-35.67338 -26.125,-51.65625 -1.01058,-7.84652 -6.09664,-11.55221 -11.375,-11.625 z" style="fill:#ffffff;stroke:none" inkscape:connector-curvature="0"/>
      <path sodipodi:nodetypes="ccc" inkscape:connector-curvature="0" id="path3082" d="m 379.28572,594.7729 c 21.79358,14.88025 42.10904,-11.68485 46.0027,-16.80569 17.42022,8.85612 27.71356,10.63242 43.16982,-3.78599" style="fill:none;stroke:#000000;stroke-width:1px;stroke-linecap:butt;stroke-linejoin:miter;stroke-opacity:1"/>
      <path sodipodi:nodetypes="ccccccccccc" inkscape:connector-curvature="0" id="path3084" d="m 397.36876,551.70533 c 0.49247,-3.7486 1.99766,-7.57872 5.86546,-8.32036 10.55408,-3.13925 21.67092,-4.97904 32.68608,-3.86451 2.94864,0.35374 6.66595,1.4761 7.37298,4.79757 1.21708,4.9096 -3.86493,8.96719 -6.98844,12.54131 -1.27242,1.61364 -4.53059,2.13109 -5.60602,3.85667 -1.6896,3.45054 -1.84904,9.92676 -5.53598,11.37591 -2.54145,0.69113 -3.95612,-2.14484 -5.03149,-3.92659 -1.1827,-2.09125 -2.04817,-4.70691 -4.79884,-4.55437 -2.34512,0.0615 -4.8433,0.5351 -7.03192,-0.75559 -4.5801,-3.00424 -10.40829,-5.90071 -10.93183,-11.15004 z" style="fill:#bea481;fill-opacity:1;stroke:none"/>
      <path inkscape:connector-curvature="0" id="path3917" d="m 419.5,584.79968 13.3125,-3.0625 -7.3125,-3.6875 z" style="fill:#000000;stroke:none"/>
      <path sodipodi:nodetypes="ccc" inkscape:connector-curvature="0" id="path3876" d="m 424.82438,577.69309 -1.01015,-18.07226 1.78356,17.946" style="fill:#000000;stroke:none;display:inline"/>
      <g style="opacity:0.90980392" id="g4317">
        <path style="fill:#683a28;fill-opacity:1;stroke:none" d="m 440.5,484.86218 c -14.75137,35.78237 16.45681,27.42802 0,0 z" id="path4198" inkscape:connector-curvature="0"/>
        <path style="fill:#683a28;fill-opacity:1;stroke:none" d="m 371.5,451.86218 c 0.43275,22.90235 17.95825,9.79542 0,0 z" id="path4186" inkscape:connector-curvature="0"/>
        <path style="fill:#683a28;fill-opacity:1;stroke:none" d="m 409,442.36218 c 4.34669,32.51422 22.85774,1.90482 0,0 z" id="path4188" inkscape:connector-curvature="0"/>
        <path style="fill:#683a28;fill-opacity:1;stroke:none" d="m 426.5,448.86218 c 11.08671,33.22621 24.03478,21.36425 0,0 z" id="path4190" inkscape:connector-curvature="0"/>
        <path style="fill:#683a28;fill-opacity:1;stroke:none" d="m 448.5,454.86218 c -6.72969,23.11897 15.82578,8.63225 0,0 z" id="path4192" inkscape:connector-curvature="0"/>
        <path style="fill:#683a28;fill-opacity:1;stroke:none" d="m 464,451.86218 c -6.50208,31.28404 19.57674,4.51771 0,0 z" id="path4194" inkscape:connector-curvature="0"/>
        <path style="fill:#683a28;fill-opacity:1;stroke:none" d="m 459,494.86218 c 4.26345,7.37854 35.9561,-10.1317 36,-10 4.91686,14.75059 -43.08576,23 -36.5,23 11.34391,0 4.02883,-10.75437 0.5,-13 z" id="path4200" inkscape:connector-curvature="0"/>
        <path style="fill:#683a28;fill-opacity:1;stroke:none" d="m 389,421.86218 c 2.12207,60.5647 23.86899,5.50823 0,0 z" id="path4206" inkscape:connector-curvature="0"/>
        <path style="fill:#683a28;fill-opacity:1;stroke:none" d="m 400.5,411.36218 c 14.76367,49.03039 9.15755,-33.13021 0,3.5" id="path4208" inkscape:connector-curvature="0"/>
        <path style="fill:#683a28;fill-opacity:1;stroke:none" d="m 303.70236,524.50697 c 0.5807,9.00021 -6.36396,17.34989 -6.36396,26.16295 0,42.00167 -23.38531,-28.64205 6.36396,-26.16295 z" id="path4212" inkscape:connector-curvature="0"/>
        <path style="fill:#683a28;fill-opacity:1;stroke:none" d="m 337.64349,553.1448 c -58.73505,3.24803 5.65685,44.93705 5.65685,7.07106 0,-4.88578 -2.9673,-5.95042 -5.65685,-7.07106 z" id="path4214" inkscape:connector-curvature="0"/>
        <path style="fill:#683a28;fill-opacity:1;stroke:none" d="m 334.10795,525.92119 c 8.30006,-8.80152 33.37905,-6.30047 24.74874,10.96015 -8.86321,17.72642 -17.95883,1.98074 -26.87006,-2.47487 -6.12006,-3.06003 -15.0484,3.9439 -19.79899,-3.18198 -7.96251,-11.94377 53.78165,-33.62449 21.92031,-5.3033 z" id="path4216" inkscape:connector-curvature="0"/>
        <path style="fill:#683a28;fill-opacity:1;stroke:none" d="m 354.9676,466.52422 c 0.86308,6.27623 1.06066,13.31649 1.06066,19.79899 0,24.78342 22.92068,-28.51948 -1.06066,-19.79899 z" id="path4218" inkscape:connector-curvature="0"/>
      </g>
      <g transform="matrix(0.98522314,0.17127567,-0.17127567,0.98522314,115.46355,-50.737884)" id="g4372">
        <path style="fill:none;stroke:#000000;stroke-width:1px;stroke-linecap:butt;stroke-linejoin:miter;stroke-opacity:1" d="m 369.67471,563.89353 c -41.35374,21.32798 -74.65083,47.78292 -105.71246,75.66043" id="path3931" inkscape:connector-curvature="0" sodipodi:nodetypes="cc"/>
        <path style="fill:none;stroke:#000000;stroke-width:1px;stroke-linecap:butt;stroke-linejoin:miter;stroke-opacity:1" d="m 363.6643,559.29734 c -33.45453,17.1363 -65.29392,36.8568 -94.0452,61.51829" id="path3933" inkscape:connector-curvature="0" sodipodi:nodetypes="cc"/>
        <path style="fill:none;stroke:#000000;stroke-width:1px;stroke-linecap:butt;stroke-linejoin:miter;stroke-opacity:1" d="m 374.97801,570.2575 c -19.76786,19.64206 -37.92823,30.1891 -49.49747,55.15432" id="path3935" inkscape:connector-curvature="0" sodipodi:nodetypes="cc"/>
        <path style="fill:none;stroke:#000000;stroke-width:1px;stroke-linecap:butt;stroke-linejoin:miter;stroke-opacity:1" d="m 375.68512,575.91435 c -17.53524,16.88116 -38.61399,31.95455 -43.13352,55.50788" id="path3937" inkscape:connector-curvature="0" sodipodi:nodetypes="cc"/>
        <path style="fill:none;stroke:#000000;stroke-width:1px;stroke-linecap:butt;stroke-linejoin:miter;stroke-opacity:1" d="m 379.92776,580.15699 c -16.26205,16.28539 -33.05087,32.37924 -39.24443,52.3259" id="path3939" inkscape:connector-curvature="0" sodipodi:nodetypes="cc"/>
        <path style="fill:none;stroke:#000000;stroke-width:1px;stroke-linecap:butt;stroke-linejoin:miter;stroke-opacity:1" d="m 385.23106,585.10674 c -10.07896,15.68545 -21.26019,31.15044 -26.87006,47.7297" id="path3941" inkscape:connector-curvature="0" sodipodi:nodetypes="cc"/>
      </g>
      <g transform="matrix(0.97974877,-0.20023075,0.20023075,0.97974877,-122.00544,108.51128)" id="g4380">
        <path style="fill:none;stroke:#000000;stroke-width:1px;stroke-linecap:butt;stroke-linejoin:miter;stroke-opacity:1" d="m 478.00418,543.59886 c 22.42397,-6.50418 44.27882,-8.45533 65.76093,-7.42463" id="path3943" inkscape:connector-curvature="0" sodipodi:nodetypes="cc"/>
        <path style="fill:none;stroke:#000000;stroke-width:1px;stroke-linecap:butt;stroke-linejoin:miter;stroke-opacity:1" d="m 475.88286,551.73058 c 28.07019,-4.17862 54.41773,-5.94554 77.78175,-3.53553" id="path3945" inkscape:connector-curvature="0" sodipodi:nodetypes="cc"/>
        <path style="fill:none;stroke:#000000;stroke-width:1px;stroke-linecap:butt;stroke-linejoin:miter;stroke-opacity:1" d="m 481.18616,558.4481 c 31.21532,3.17156 58.35038,11.44344 82.02439,24.04163" id="path3947" inkscape:connector-curvature="0" sodipodi:nodetypes="cc"/>
        <path style="fill:none;stroke:#000000;stroke-width:1px;stroke-linecap:butt;stroke-linejoin:miter;stroke-opacity:1" d="m 484.01459,563.39785 c 30.67975,8.48232 44.94377,18.22739 64.34672,27.57716" id="path3949" inkscape:connector-curvature="0" sodipodi:nodetypes="cc"/>
        <path style="fill:none;stroke:#000000;stroke-width:1px;stroke-linecap:butt;stroke-linejoin:miter;stroke-opacity:1" d="m 475.88286,569.0547 53.03301,28.99138" id="path3951" inkscape:connector-curvature="0"/>
      </g>
      <path inkscape:connector-curvature="0" id="path3957" d="m 310.18764,443.18969 c -0.11785,-8.13173 -0.2357,-16.26345 -0.35355,-24.39518 -13.45951,-12.87058 -27.71304,-26.14879 -45.81524,-31.97329 -4.32594,-1.50185 -9.46877,-2.73781 -13.5141,0.18704 -5.4931,4.12979 -5.58976,11.90539 -4.82084,18.11396 0.8097,8.43198 5.7079,15.51635 8.98584,23.09843 8.48834,18.36605 15.57764,37.35432 24.47236,55.53624 3.61445,3.3331 7.69569,-0.67518 8.92768,-4.19608 1.41741,-3.33386 3.36863,-6.34025 5.40876,-9.29815 5.5697,-9.02433 11.13939,-18.04865 16.70909,-27.07297 z" style="fill:#bea481;fill-opacity:1;stroke:none"/>
      <path inkscape:connector-curvature="0" id="path3959" d="m 457.14453,409.24857 c -4.94975,-4.59619 -9.89949,-9.19239 -14.84924,-13.78858 -1.41421,-5.18545 -2.82843,-10.3709 -4.24264,-15.55635 5.77012,-10.79659 11.77468,-21.51686 19.12892,-31.33136 3.36461,-4.85244 6.27944,-10.13874 10.17887,-14.54502 2.72296,-1.08918 5.44591,-2.17837 8.16887,-3.26755 3.10175,4.71811 7.36815,9.14828 7.80093,15.0744 2.15341,9.54037 5.82836,18.93535 5.45612,28.859 0.34098,13.74168 0.76214,27.50744 -0.0997,41.23912 1.18414,3.95397 -3.26336,1.92839 -5.30213,1.27679 -8.74668,-2.65348 -17.49336,-5.30698 -26.24004,-7.96045 z" style="fill:#bea481;fill-opacity:1;stroke:none"/>
      <path sodipodi:nodetypes="cccccccccccccccccccccccccccccccccccccccccccccccccccccc" inkscape:connector-curvature="0" id="path3961" d="m 464.9375,336.9375 -1.46875,2.15625 11.69546,-1.95711 z m -4.125,6.1875 -1.375,2.0625 17.50796,-2.76961 z m -5.25,7.78125 -1.6875,2.46875 21.28921,-3.17586 z m -5.1875,7.625 -1.9375,2.8125 29.22671,-3.36336 z m 22.66421,4.76164 -26.32046,0.86336 L 445,367.3125 z m 8.84375,5.65625 -38.50796,1.33211 -1,1.8125 z m -41.13296,6.08211 -1.6875,3.0625 35.03921,-2.42586 z m -2.5625,4.65625 -0.125,0.21875 0.9375,3.40625 39.35171,-3.39461 z m 1.5,6.21875 1.03125,3.84375 38.35171,-4.17586 z m 37.60171,5.66789 -35.78921,1.05086 0.78125,2.84375 0.90625,0.84375 z m 7.4375,4.59375 -39.35171,2.17586 4.375,4.03125 z m -3.1875,3.53125 -30.38296,3.98836 3.40625,3.15625 z m 1.0625,6.375 -24.66421,3.42586 9.3125,2.8125 z" style="fill:#dad1c2;fill-opacity:1;stroke:none"/>
      <path id="path3986" d="m 271.59375,389.8125 -13.84375,9.875 18.9375,-7.34375 c -1.66269,-0.9137 -3.36414,-1.73935 -5.09375,-2.53125 z m 8.3125,4.375 -22.15625,14 27.25,-10.65625 c -1.67532,-1.16328 -3.35384,-2.28875 -5.09375,-3.34375 z m 7.65625,5.1875 -22.75,13.0625 28.875,-8.3125 c -1.99289,-1.64718 -4.04991,-3.22215 -6.125,-4.75 z m 8.125,6.4375 -30.53125,15.8125 37.625,-9.46875 c -2.32408,-2.14823 -4.68053,-4.28639 -7.09375,-6.34375 z m 8.1875,7.375 -35.53125,13.375 41.53125,-4.9375 -0.0313,-2.84375 c -1.96125,-1.87543 -3.96433,-3.72533 -5.96875,-5.59375 z m 6.03125,9.78125 -36.96875,8.5625 37.0625,-1.71875 -0.0937,-6.84375 z m 0.125,8.0625 -39.90625,7.5625 40,1.0625 -0.0937,-8.625 z m 0.125,10.625 -41.09375,5.4375 37.46875,2 3.65625,-5.90625 -0.0313,-1.53125 z m -5.09375,9.84375 -22.9375,4.40625 19.625,0.9375 3.3125,-5.34375 z m -7.75,12.5625 c -8.16718,1.66354 -15.60698,3.096 -18.34375,3.4375 2.54233,-0.006 9.22039,0.15313 16.03125,0.25 l 2.3125,-3.6875 z M 278.96875,467.5 c -0.87029,0.002 -1.36593,0.0432 -1.0625,0.0937 0.14659,0.0244 0.52685,-0.0269 1.0625,-0.0937 z" style="fill:#dad1c2;fill-opacity:1;stroke:none" inkscape:connector-curvature="0"/>
      <path sodipodi:nodetypes="ccccccccccc" inkscape:connector-curvature="0" id="path3091" d="m 328.27123,526.35171 c 2.61613,-6.14196 6.83632,-8.47171 12.09119,-10.02029 6.85114,-2.81047 15.16718,-3.85061 22.58815,-3.37276 3.22194,-0.0132 6.48,-0.28753 9.66765,0.32411 2.22542,1.4399 3.11487,4.10969 4.84048,6.02722 0.67901,1.00855 2.08801,2.90283 0.80763,0.93924 -3.11216,-4.99481 -5.59296,-9.35828 -8.70512,-14.3531 -10.78451,2.15105 -22.66146,1.55678 -33.08097,5.36685 -4.73592,2.04296 -7.80153,6.39409 -11.21034,10.04773 -1.78364,1.76358 -0.80077,5.25671 1.62308,5.80585 0.39742,0.0386 1.60377,-0.15214 1.37825,-0.76485 z" style="fill:#000000;stroke:none;display:inline"/>
      <path sodipodi:nodetypes="ccccc" inkscape:connector-curvature="0" id="path3870" d="m 441.53457,495.66833 c 10.44563,-5.61607 25.7335,-14.56646 36.49641,-13.32522 5.41068,2.59784 6.44498,2.79782 11.61211,4.99146 -4.5865,-6.75635 -6.60697,-8.93301 -14.34973,-9.72203 -26.04052,-0.50256 -37.27515,19.12849 -33.75879,18.05579 z" style="fill:#000000;fill-opacity:1;stroke:none;display:inline"/>
    </g>
  </g>
  <metadata>
    <rdf:RDF>
      <cc:Work>
        <dc:format>image/svg+xml</dc:format>
        <dc:type rdf:resource="http://purl.org/dc/dcmitype/StillImage"/>
        <cc:license rdf:resource="http://creativecommons.org/licenses/publicdomain/"/>
        <dc:publisher>
          <cc:Agent rdf:about="http://openclipart.org/">
            <dc:title>Open Clip Art Library</dc:title>
          </cc:Agent>
        </dc:publisher>
        <dc:title>smile cat</dc:title>
        <dc:date>2012-07-07T13:17:31</dc:date>
        <dc:description/>
        <dc:source>http://openclipart.org/detail/171084/smile-cat-by-stilg4r-171084</dc:source>
        <dc:creator>
          <cc:Agent>
            <dc:title>stilg4r</dc:title>
          </cc:Agent>
        </dc:creator>
        <dc:subject>
          <rdf:Bag>
            <rdf:li>clip art</rdf:li>
            <rdf:li>clipart</rdf:li>
          </rdf:Bag>
        </dc:subject>
      </cc:Work>
      <cc:License rdf:about="http://creativecommons.org/licenses/publicdomain/">
        <cc:permits rdf:resource="http://creativecommons.org/ns#Reproduction"/>
        <cc:permits rdf:resource="http://creativecommons.org/ns#Distribution"/>
        <cc:permits rdf:resource="http://creativecommons.org/ns#DerivativeWorks"/>
      </cc:License>
    </rdf:RDF>
  </metadata>
</svg>
